######## ######## ######## ##          ######## ########  ######## ######## 
##       ##       ##       ##          ##       ##     ## ##       ##       
##       ##       ##       ##          ##       ##     ## ##       ##       
######   ######   ######   ##          ######   ########  ######   ######   
##       ##       ##       ##          ##       ##   ##   ##       ##       
##       ##       ##       ##          ##       ##    ##  ##       ##       
##       ######## ######## ########    ##       ##     ## ######## ######## 

Genre:Drama | Thriller 
Language:English
IMDb: 
http://www.imdb.com/title/tt0988849/
Source:LIMITED 720p BluRay x264-iNFAMOUS


Format : MPEG-4
Format profile : Base Media
Codec ID : isom
File size : 2.34 GiB
Duration : 1h 39mn
Overall bit rate : 3 370 Kbps

Video
Format profile : High@L4.1
Format settings, CABAC : Yes
Format settings, ReFrames : 3 frames
Codec ID : avc1
Codec ID/Info : Advanced Video Coding
Duration : 1h 39mn
Bit rate mode : Variable
Bit rate : 3 000 Kbps
Maximum bit rate : 15.4 Mbps
Width : 1 280 pixels
Height : 688 pixels
Display aspect ratio : 1.860
Frame rate mode : Constant
Frame rate : 23.976 fps
Color space : YUV
Chroma subsampling : 4:2:0
Bit depth : 8 bits
Scan type : Progressive
Bits/(Pixel*Frame) : 0.142
Stream size : 2.04 GiB (87%)
Writing library : x264 


Audio
ID : 2
Format : AAC
Format/Info : Advanced Audio Codec
Format version : Version 4
Format profile : LC
Format settings, SBR : No
Codec ID : 40
Duration : 1h 39mn
Bit rate mode : Variable
Bit rate : 430 Kbps
Maximum bit rate : 528 Kbps
Channel(s) : 6 channels
Channel positions : Front: L C R, Side: L R, LFE
Sampling rate : 48.0 KHz
Stream size : 306 MiB (13%)


Plot:
Things go drastically wrong for a group of British holidaymakers in Spain.





==================================  
http://thepiratebay.org/user/hiest
==================================





Screen Shots:
 
http://www.pix2links.com/images/50915202541395202852.png
 
http://www.pix2links.com/images/90410390546696944788.png
 
http://www.pix2links.com/images/81688427589471555298.png
 
http://www.pix2links.com/images/29032425468927452139.png

######## ######## ######## ##          ######## ########  ######## ######## 
##       ##       ##       ##          ##       ##     ## ##       ##       
##       ##       ##       ##          ##       ##     ## ##       ##       
######   ######   ######   ##          ######   ########  ######   ######   
##       ##       ##       ##          ##       ##   ##   ##       ##       
##       ##       ##       ##          ##       ##    ##  ##       ##       
##       ######## ######## ########    ##       ##     ## ######## ######## 